<?xml version="1.0" standalone="no"?>
<!DOCTYPE svg PUBLIC "-//W3C//DTD SVG 20010904//EN"
 "http://www.w3.org/TR/2001/REC-SVG-20010904/DTD/svg10.dtd">
<svg version="1.0" xmlns="http://www.w3.org/2000/svg"
 width="468.000000pt" height="468.000000pt" viewBox="0 0 468.000000 468.000000"
 preserveAspectRatio="xMidYMid meet">

<g transform="translate(0.000000,468.000000) scale(0.100000,-0.100000)"
fill="#000000" stroke="none">
<path d="M2100 4665 c-604 -66 -1143 -354 -1532 -819 -307 -366 -482 -778
-533 -1256 -102 -945 388 -1858 1238 -2305 613 -323 1342 -350 2000 -75 253
107 351 168 582 365 348 298 591 665 721 1089 328 1077 -152 2226 -1151 2752
-398 209 -873 299 -1325 249z m461 -135 c499 -50 948 -258 1311 -608 188 -182
327 -372 442 -607 58 -116 123 -282 141 -357 7 -27 6 -28 -33 -28 -52 0 -113
-17 -277 -75 -71 -25 -139 -49 -150 -52 -11 -3 -52 -30 -91 -59 -180 -134
-520 -267 -786 -308 -75 -12 -111 -26 -275 -105 -221 -108 -283 -146 -283
-172 0 -37 36 -44 225 -43 156 0 199 4 320 28 449 90 880 288 1210 555 44 35
99 85 122 110 48 51 45 54 67 -64 58 -303 43 -672 -41 -975 -86 -313 -267
-645 -480 -879 -42 -46 -53 -53 -74 -48 -35 9 -77 53 -88 91 -5 20 -13 29 -22
27 -55 -16 -79 -13 -109 17 -22 23 -30 40 -30 67 0 33 -2 35 -20 25 -15 -8
-27 -7 -50 5 -44 23 -64 58 -56 100 6 28 4 35 -9 35 -24 0 -57 39 -50 59 4 13
-2 24 -19 35 -15 9 -30 33 -36 56 -6 21 -15 42 -20 45 -6 3 -10 11 -10 16 0 5
10 3 23 -5 12 -7 35 -17 51 -20 19 -5 32 -16 39 -36 8 -21 18 -30 33 -30 23 0
64 -42 64 -65 0 -6 17 -17 39 -23 47 -15 58 -27 69 -78 6 -30 13 -39 28 -37
32 3 82 -27 94 -58 l12 -29 28 20 c31 22 90 26 122 9 11 -6 22 -8 25 -5 8 8
-9 82 -57 246 -67 227 -67 374 -1 410 11 5 57 22 103 36 196 61 298 209 298
433 0 133 2 131 -151 131 -107 0 -119 2 -119 18 0 9 16 30 35 45 43 34 44 45
5 39 -26 -4 -30 -1 -30 19 0 13 -4 30 -9 38 -10 15 2 20 -153 -65 -85 -47
-141 -75 -268 -132 -163 -73 -494 -167 -662 -187 -43 -6 -52 -12 -125 -92 -79
-88 -180 -188 -241 -238 -18 -15 -30 -31 -25 -35 4 -4 41 -12 80 -19 193 -30
571 -165 615 -219 7 -9 -8 -3 -33 11 -25 15 -51 27 -57 27 -6 0 -37 12 -69 26
-89 41 -388 126 -510 146 -58 9 -63 8 -99 -16 -21 -14 -46 -26 -54 -26 -29 0
-125 96 -157 157 -17 32 -50 122 -72 200 -22 79 -55 171 -72 205 -42 83 -253
363 -282 374 -7 2 -33 -1 -57 -9 -46 -13 -48 -13 -190 20 -118 26 -214 27
-330 3 -58 -13 -140 -23 -184 -24 -74 -1 -79 -2 -88 -26 -5 -14 -8 -63 -6
-110 l3 -85 -70 5 c-141 10 -186 6 -206 -19 -47 -58 -72 -246 -50 -371 l12
-68 -36 -50 c-35 -49 -105 -206 -105 -236 0 -20 -19 -31 -33 -17 -7 7 -7 21 0
46 11 33 10 37 -10 44 -27 10 -55 2 -36 -10 17 -10 -19 -24 -87 -35 -48 -7
-61 -5 -57 7 1 4 -7 5 -17 2 -25 -7 -25 -18 -2 -51 11 -15 31 -50 47 -79 45
-84 130 -107 204 -54 38 28 85 127 118 250 27 105 39 126 54 99 21 -38 86 -89
129 -102 34 -10 61 -11 113 -3 62 8 72 7 95 -10 15 -11 36 -37 47 -59 18 -35
20 -59 20 -244 0 -113 -4 -268 -9 -346 -10 -160 -1 -229 45 -358 36 -100 88
-194 150 -273 27 -35 46 -63 43 -63 -15 0 -184 96 -274 156 -260 172 -498 418
-660 684 -95 156 -194 381 -240 545 -19 70 -60 277 -60 306 0 22 -8 31 -37 46
-31 15 -39 24 -41 51 -2 19 -1 41 3 50 5 13 9 10 20 -15 18 -42 42 -47 120
-28 58 15 122 55 109 68 -2 2 -27 -2 -55 -9 -99 -26 -103 2 -15 114 77 97 85
118 60 142 -18 16 -24 16 -99 1 -44 -8 -72 -17 -61 -19 10 -2 38 1 61 8 73 21
89 -15 31 -72 -71 -70 -106 -101 -111 -97 -6 6 -8 201 -2 219 3 8 8 44 12 80
21 226 97 485 211 715 218 444 571 793 1019 1010 355 171 763 244 1156 205z
m-1202 -2048 c20 -20 41 -46 47 -57 9 -16 22 -20 65 -20 48 0 54 -2 52 -20
-10 -97 -13 -258 -13 -748 -1 -352 -5 -567 -10 -567 -6 0 -10 231 -11 613 0
589 -2 653 -13 683 -13 33 -66 4 -94 -52 -16 -30 -93 -68 -123 -61 -42 11 -88
45 -105 79 -46 88 20 188 125 188 37 0 49 -5 80 -38z m2671 -458 c0 -17 -22
-14 -28 4 -2 7 3 12 12 12 9 0 16 -7 16 -16z"/>
<path d="M1190 3645 c-163 -25 -230 -67 -230 -143 1 -46 28 -196 74 -407 43
-194 43 -200 15 -184 -13 6 -47 9 -82 7 -51 -4 -64 -9 -85 -33 -49 -57 -7
-153 92 -214 111 -67 178 -72 356 -29 69 17 104 19 185 15 55 -3 123 -13 150
-22 28 -9 86 -17 130 -18 77 -2 82 -1 121 31 22 18 63 41 90 51 82 32 119 127
73 192 -19 26 -26 29 -80 29 -33 0 -69 -5 -79 -10 -10 -6 -21 -6 -24 -1 -5 7
36 208 89 441 8 36 16 93 17 127 3 74 -15 99 -90 131 -113 48 -514 69 -722 37z
m567 -781 c18 -3 31 -10 28 -14 -3 -4 -38 -18 -77 -31 -63 -20 -95 -23 -233
-23 -124 -1 -172 3 -215 17 -62 19 -87 33 -78 42 20 20 479 27 575 9z"/>
<path d="M3465 3130 c-16 -4 -57 -13 -90 -21 -96 -21 -225 -97 -303 -178 -80
-83 -92 -133 -67 -273 9 -52 21 -101 25 -108 7 -12 24 -12 102 -1 170 22 415
99 570 177 73 37 188 112 188 123 0 21 -83 148 -138 212 -57 65 -184 96 -287
69z"/>
<path d="M474 2273 c-13 -43 -34 -59 -42 -34 -2 6 3 8 12 5 17 -6 23 11 7 20
-15 10 -39 -4 -45 -26 -4 -19 -7 -20 -23 -7 -16 12 -17 12 -6 -2 7 -9 11 -18
8 -21 -3 -2 9 -3 25 0 66 10 25 -52 -92 -135 -61 -44 -61 -57 -3 -51 58 7 68
-8 49 -71 -15 -51 -12 -61 16 -54 11 3 27 0 34 -6 12 -10 17 -8 25 8 16 28 14
33 -8 21 -11 -5 -27 -10 -37 -10 -21 0 -14 43 18 106 12 24 19 47 15 50 -3 4
-24 -1 -47 -10 -66 -26 -50 1 65 112 58 55 105 106 105 111 0 6 -16 11 -35 11
-25 0 -37 -5 -41 -17z"/>
<path d="M1248 2490 c-48 -9 -65 -24 -79 -69 -16 -54 8 -107 57 -127 99 -42
186 51 137 145 -22 42 -63 60 -115 51z"/>
</g>
</svg>
